# xmcd
#
# Track frame offsets:
#	182
#	18275
#	39202
#	64185
#	86062
#	104205
#	124127
#	144850
#	174340
#	194667
#	210050
#
# Disc length: 3031 seconds
#
# Revision: 7
# Processed by: cddbd v1.5.2PL0 Copyright (c) Steve Scherf et al.
# Submitted via: EasyCDDAExtractor 12.0.1.1
#
DISCID=910bd50b
DTITLE=Various Artist - Addams Family Values
DYEAR=1993
DGENRE=
TTITLE0=H-Town - It's Your Thing
TTITLE1=Portrait - Be Thankful for What You've Got
TTITLE2=Fu-Schnickens - Express Yourself
TTITLE3=RuPaul - Watcha See Is Watcha Get
TTITLE4=Shabba Ranks - Family Affair (rap version)
TTITLE5=Brian McKnight - Night People
TTITLE6=Charles and Eddie - Supernatrual Thing
TTITLE7=R. Kelly - Do Your Thing (Love On)
TTITLE8=Guru - Do It Any Way You Wanna (It's on You)
TTITLE9=P.M. Dawn - May You Always Drink Bizarre
TTITLE10=Tag Team - Addams Family (Whoomp!)
EXTD=The Music from the movie "Addams Family Values"
EXTT0=
EXTT1=
EXTT2=
EXTT3=
EXTT4=
EXTT5=
EXTT6=
EXTT7=
EXTT8=
EXTT9=
EXTT10=
PLAYORDER=
